<svg width="104" height="104" viewBox="0 0 104 104" fill="none" xmlns="http://www.w3.org/2000/svg">
<g clip-path="url(#clip0_4899_4)">
<rect width="104" height="104" fill="#0E1117"/>
<path fill-rule="evenodd" clip-rule="evenodd" d="M47.3716 10.9414C50.5776 11.1256 52.5466 12.2487 55.0006 13.0618C55.6616 13.2094 56.3216 13.3569 56.9816 13.5045C57.2586 13.5709 57.7006 13.4966 57.8916 13.6461C58.6006 14.2027 58.9436 15.2723 59.3486 16.0973C60.4386 18.3158 61.0016 20.9106 61.9396 23.2647C61.7006 23.9322 60.0476 25.1395 59.4536 25.5436C59.0796 25.7981 58.8226 26.1873 58.3256 26.2972C57.9336 26.3854 56.7546 26.531 56.4146 26.2299C56.4316 26.2309 56.4466 26.2309 56.4636 26.2329C57.4206 25.5317 58.3786 24.8305 59.3366 24.1283C59.6676 23.9164 59.9986 23.7034 60.3316 23.4895C60.3186 21.1334 58.9466 19.6142 57.9816 18.0414C57.6006 17.4185 57.3526 16.6797 56.9366 16.0646C57.4216 17.5463 57.9066 19.0279 58.3916 20.5095C58.5556 21.0413 58.9416 22.0277 58.7766 22.6586C57.7566 23.3142 56.7356 23.9689 55.7156 24.6245C55.4266 24.8414 55.1356 25.0583 54.8446 25.2752C54.3446 25.3039 53.8446 25.3306 53.3456 25.3594C53.3536 25.3445 53.3636 25.3287 53.3736 25.3128C53.6806 25.0969 53.9866 24.882 54.2926 24.6661C55.0536 24.1659 56.2096 23.2241 57.0396 22.925C57.0326 20.562 55.6926 19.1081 54.7096 17.5502C54.2486 16.8203 53.9046 15.9498 53.4176 15.2357C53.7606 16.9134 54.5696 18.4029 55.0946 20.0182C55.2156 20.3916 55.6456 21.6821 55.4616 22.0673C54.3296 22.7636 53.1976 23.4598 52.0676 24.156C51.7606 24.3789 51.4526 24.6027 51.1456 24.8265C50.5206 24.8533 49.8976 24.882 49.2716 24.9097C49.2736 24.8998 49.2736 24.8929 49.2736 24.883C49.2936 24.8622 49.3116 24.8384 49.3296 24.8146C49.6446 24.5918 49.9606 24.369 50.2756 24.1452C51.0786 23.6133 52.3016 22.6091 53.1806 22.2912C53.1716 20.039 52.0656 18.5554 51.1906 17.0164C50.8216 16.2984 50.4536 15.5823 50.0846 14.8643C50.2576 15.4447 50.4286 16.024 50.6006 16.6024C50.9146 17.6067 51.1476 18.5743 51.3916 19.6439C51.4816 20.0559 51.7956 21.0354 51.6006 21.4345C50.4706 22.1317 49.3406 22.827 48.2076 23.5232C47.9016 23.748 47.5936 23.9699 47.2856 24.1947C46.9556 24.3105 45.3636 24.3234 44.9676 24.2442C45.9066 22.9478 46.9956 21.4157 48.3326 20.5758C47.1506 19.0912 45.9696 17.6057 44.7876 16.1201C45.4696 17.4462 46.1426 18.8209 46.7166 20.2332C46.6206 20.4827 46.3626 20.6283 46.1996 20.8105C45.6836 21.3632 45.1696 21.9168 44.6556 22.4704C43.6386 23.6133 43.0426 24.8959 41.4466 25.3861C40.7446 25.602 40.0536 25.5158 39.1686 25.5852C38.6766 25.6248 37.5286 25.5485 37.0926 25.3821C35.9406 24.9414 35.2906 23.651 34.4676 22.9191C34.7466 23.4984 35.0266 24.0778 35.3066 24.6582C35.0156 25.5297 34.7256 26.4042 34.4356 27.2787C34.0306 28.5632 33.6266 29.8487 33.2216 31.1333C32.8576 32.0979 32.4936 33.0665 32.1306 34.0331C32.1386 34.0331 32.1466 34.0331 32.1546 34.0351C32.1566 34.0192 32.1576 34.0024 32.1596 33.9866C32.7316 33.4706 33.1006 32.5416 33.5146 31.8681C34.5076 30.2499 35.5756 28.488 36.3236 26.6548C36.8566 27.1311 37.2656 27.5659 37.9416 27.9591C37.2996 28.9881 36.6576 30.0161 36.0166 31.0451C35.1036 32.7308 34.3586 34.4748 33.7316 36.5437C33.2016 38.2927 33.0586 40.2507 32.5896 42.077C32.4376 42.8792 32.2856 43.6824 32.1336 44.4826C31.4606 45.1561 30.7866 45.8295 30.1136 46.501C28.6186 48.1787 27.0786 49.9495 25.8696 51.9293C25.8946 51.9134 25.9206 51.8996 25.9476 51.8847C26.2916 51.2835 27.0666 50.7705 27.5836 50.3298C29.1246 49.0175 30.7886 47.9212 32.6416 46.9615C35.5926 45.4294 38.5506 43.6903 42.2226 43.0406C45.9826 42.3751 49.5696 44.5004 52.0446 45.7681C52.9946 46.2504 53.9456 46.7318 54.8956 47.2141C54.0716 48.6065 53.1446 50.0258 52.1056 51.1954C51.6956 51.6559 51.1546 51.9827 50.7416 52.4254C52.6806 51.9402 54.1076 51.2102 55.2906 49.8802C55.8746 49.175 56.4606 48.4718 57.0436 47.7687C58.7776 45.8731 60.8186 44.1776 62.9956 42.7891C63.7936 42.282 64.6196 41.7036 65.5656 41.3778C68.8266 40.2616 74.6336 41.4015 77.9086 42.3721C78.6726 42.584 79.4366 42.798 80.2016 43.0099C80.8916 55.0648 76.1876 63.5137 70.6376 69.6551C69.2916 71.1436 67.7596 72.5797 66.0996 73.7037C65.4226 74.1643 64.8066 74.7367 64.0736 75.1309C62.7056 73.9127 62.0286 71.3268 61.1556 69.6412C59.3506 66.1501 57.0466 62.874 53.4046 60.9536C52.6096 60.5357 51.7416 60.0018 50.7566 59.7701C50.7566 59.779 50.7566 59.7869 50.7556 59.7949C51.8056 60.09 52.4686 61.0962 53.3336 61.5647C53.3326 61.5736 53.3316 61.5805 53.3306 61.5894C52.6836 61.6162 52.0336 61.6409 51.3846 61.6667C49.6176 61.9727 48.0436 62.6155 46.3966 63.1196C44.2936 63.7603 42.2326 64.0337 39.7146 64.2734C37.9206 64.4427 35.4766 63.7059 34.1926 63.2453C32.0276 62.4659 30.0436 61.6776 27.9786 60.8585C26.7486 60.3495 25.5176 59.8374 24.2876 59.3274C24.2866 59.3343 24.2856 59.3432 24.2846 59.3522C25.4566 60.089 26.6296 60.8249 27.8006 61.5617C28.5456 62.0103 29.2926 62.461 30.0386 62.9116C31.8586 64.1476 33.9136 65.2786 36.2456 66.0342C36.8666 66.163 37.4876 66.2918 38.1086 66.4205C39.4646 66.7255 41.2296 66.3809 42.2576 66.163C44.9836 65.5816 47.4266 64.8488 49.9596 64.0495C51.1156 63.6851 52.2446 63.4801 53.8756 63.6019C54.3226 63.6346 55.0656 63.585 55.4056 63.7643C55.8616 64.4318 56.3166 65.0974 56.7716 65.7639C57.6036 67.1405 58.2536 68.6261 58.9016 70.1622C59.1456 70.7623 59.3916 71.3665 59.6356 71.9666C57.1636 71.4596 55.6496 70.3058 53.7396 69.3094C52.7366 68.7845 51.5056 67.9813 49.8246 68.1061C48.7996 68.1824 47.8106 68.227 46.8706 68.3547C46.0586 68.4498 45.2466 68.5459 44.4336 68.6419C44.4336 68.6489 44.4326 68.6578 44.4326 68.6647C45.1196 68.7984 45.8056 68.9331 46.4926 69.0648C47.7506 69.3718 48.9656 69.3956 50.0216 69.7967C50.8336 70.1374 51.6446 70.4761 52.4576 70.8158C52.4566 70.8227 52.4556 70.8326 52.4556 70.8406C49.8146 70.6356 47.2276 70.6831 44.8596 70.9158C43.1976 70.9475 41.5356 70.9792 39.8746 71.0119C38.9296 71.006 37.9836 71.004 37.0376 70.999C36.6836 70.9723 36.3296 70.9455 35.9736 70.9198C35.2826 70.8594 34.5906 70.798 33.8976 70.7405C32.7036 70.4573 31.5366 70.3672 30.4416 70.0384C27.7886 69.247 25.3506 68.2913 23.0426 67.195C21.8396 66.6463 20.6376 66.0957 19.4346 65.547C18.9636 65.3222 18.4896 65.0993 18.0176 64.8735C19.9736 64.5774 21.9286 64.2783 23.8836 63.9802C24.5176 63.9465 25.1496 63.9109 25.7836 63.8762C26.1716 63.895 26.5606 63.9168 26.9486 63.9386C25.6326 63.6752 24.1036 62.9829 22.3306 63.1255C20.4856 63.2751 18.7606 63.1929 16.9626 63.3672C16.2536 63.4365 14.6676 63.5603 13.8786 63.3582C13.0316 63.1314 12.1856 62.9037 11.3406 62.6769C10.3016 62.352 9.28756 62.0856 8.35356 61.7142C8.13756 61.6241 7.91756 61.535 7.70156 61.4438C7.07756 60.8526 7.35356 57.513 7.64456 56.2889C7.69156 55.7749 7.74056 55.2609 7.78656 54.7459C8.07756 53.5307 8.02056 52.2274 8.33856 51.0904C9.13356 48.2599 10.4056 46.2861 11.9366 44.334C16.3626 38.7008 21.1226 33.3824 25.6776 27.9086C27.7766 25.3851 29.7676 22.7497 31.8586 20.2361C32.7796 19.1289 33.6626 17.983 34.6696 16.9689C35.0296 16.8233 35.3886 16.6787 35.7486 16.5331C36.6636 16.1726 37.5786 15.8141 38.4936 15.4546C40.7426 14.6652 42.8786 13.5421 44.8696 12.429C45.5546 12.0487 46.8596 11.4574 47.3716 10.9414Z" fill="#E6E7E8"/>
<path fill-rule="evenodd" clip-rule="evenodd" d="M43.9024 25.4961C44.5024 25.5991 45.0824 25.7902 45.7354 25.9299C46.2834 26.0458 46.9474 25.915 47.4314 25.8833C48.0494 26.0527 48.6674 26.2201 49.2844 26.3904C49.2314 26.436 49.1774 26.4805 49.1254 26.5271C48.6604 27.3332 48.0484 27.4669 48.1524 28.8446C45.4304 28.9179 44.0904 28.2741 42.3124 27.4234C41.8294 27.2481 41.3434 27.0718 40.8604 26.8965C42.0784 26.8925 43.3584 26.2963 43.9024 25.4961Z" fill="#E6E7E8"/>
<path fill-rule="evenodd" clip-rule="evenodd" d="M51.6189 26.4609C52.1959 26.6184 52.7719 26.7769 53.3489 26.9353C54.0289 27.1007 54.7109 26.8333 55.2859 26.9799C56.1849 27.2107 56.9869 27.8346 58.0339 27.5058C57.7289 29.6559 55.3879 29.6173 53.6529 30.1372C53.6379 30.1283 53.6229 30.1174 53.6069 30.1085C53.7219 28.8735 53.2959 28.4169 52.8429 27.7108C52.8429 27.7019 52.8449 27.695 52.8449 27.685C53.6099 27.6791 54.2619 27.7375 54.7049 28.0961C54.2399 27.2443 52.9699 27.4077 51.8469 27.3899C52.4769 28.3446 52.7199 28.2 52.8409 29.7064C52.8549 29.8946 52.8479 30.2541 52.7909 30.369C52.4239 30.4096 52.0179 30.6958 51.5579 30.5472C50.9159 30.3432 50.0429 28.6814 49.9639 27.9406C49.8979 27.3463 50.2649 26.8789 50.4899 26.5738C50.8749 26.5897 51.3509 26.6016 51.6189 26.4609Z" fill="#E6E7E8"/>
<path fill-rule="evenodd" clip-rule="evenodd" d="M29.7003 32.2734C28.9253 33.3005 28.1503 34.3275 27.3753 35.3545C26.1783 37.0045 25.3453 38.8486 24.3963 40.8254C24.0943 41.5424 23.7903 42.2594 23.4873 42.9765C23.4953 42.9775 23.5033 42.9775 23.5123 42.9775C23.5133 42.9616 23.5143 42.9448 23.5153 42.9289C24.0743 42.1317 24.6323 41.3354 25.1903 40.5411C26.4323 38.8773 27.9453 37.4145 28.8883 35.4189C29.0363 35.1049 29.7513 32.5181 29.7003 32.2734Z" fill="#E6E7E8"/>
<path fill-rule="evenodd" clip-rule="evenodd" d="M11.2725 60.6406C12.4225 62.9829 15.0125 62.8343 18.0465 62.3362C18.7745 62.3035 19.5025 62.2708 20.2305 62.2381C19.8425 62.0648 19.4525 61.8935 19.0645 61.7221C18.2905 61.4161 17.4595 61.2448 16.5335 61.0833C15.2205 60.8516 13.9445 61.4042 12.6625 61.1814C12.0675 61.0764 11.7165 60.8347 11.2725 60.6406Z" fill="#E6E7E8"/>
<path fill-rule="evenodd" clip-rule="evenodd" d="M53.2354 72.4336C54.1714 72.5168 55.1054 72.599 56.0394 72.6802C58.0244 73.1229 60.0104 73.5656 61.9964 74.0083C62.6074 74.4817 63.2194 74.9591 63.8324 75.4325C63.8234 75.4483 63.8154 75.4661 63.8054 75.481C62.9884 75.9494 62.1694 76.4159 61.3494 76.8824C59.8574 77.743 58.1664 78.2758 56.4864 78.9463C55.2714 77.9817 54.5864 75.8514 53.9554 74.2777C53.7144 73.6636 53.4754 73.0486 53.2354 72.4336Z" fill="#E6E7E8"/>
<path d="M91.6379 34.3297C93.6199 43.1442 93.0743 52.6239 89.5101 61.679C81.9651 80.8591 63.1551 92.3946 43.5102 91.7554C63.7562 97.937 85.707 87.645 93.5303 67.7627C97.9915 56.4217 96.9232 44.3101 91.6379 34.3297Z" fill="#F16822"/>
</g>
<defs>
<clipPath id="clip0_4899_4">
<rect width="104" height="104" fill="white"/>
</clipPath>
</defs>
</svg>
