<?xml version="1.0" encoding="UTF-8" standalone="no"?>
<!DOCTYPE svg PUBLIC "-//W3C//DTD SVG 1.1//EN" "http://www.w3.org/Graphics/SVG/1.1/DTD/svg11.dtd">
<svg width="100%" height="100%" viewBox="0 0 284 99" version="1.1" xmlns="http://www.w3.org/2000/svg" xmlns:xlink="http://www.w3.org/1999/xlink" xml:space="preserve" xmlns:serif="http://www.serif.com/" style="fill-rule:evenodd;clip-rule:evenodd;stroke-linejoin:round;stroke-miterlimit:2;">
    <g id="Artboard2" transform="matrix(1,0,0,1,2.88746,1.21715)">
        <rect x="-2.887" y="-1.217" width="283.426" height="98.712" style="fill:none;"/>
        <g transform="matrix(1,0,0,0.999995,-262.685,-497.205)">
            <g id="Artboard1">
                <g>
                    <g id="Layer-1" serif:id="Layer 1">
                        <g transform="matrix(1,0,0,1,367.972,570.431)">
                            <path d="M0,-6.269L0,-3.498L4.395,-3.498L4.395,-2.069L0,-2.069L0,1.417L-1.69,1.417L-1.69,-7.686L4.955,-7.686L4.955,-6.269L0,-6.269Z" style="fill:rgb(230,231,232);fill-rule:nonzero;"/>
                        </g>
                        <g transform="matrix(1,0,0,1,0,292.701)">
                            <rect x="380.315" y="270.043" width="1.689" height="9.103" style="fill:rgb(230,231,232);"/>
                        </g>
                        <g transform="matrix(1,0,0,1,392.06,570.417)">
                            <path d="M0,-6.243L-3.019,-6.243L-3.019,-7.673L4.706,-7.673L4.706,-6.243L1.689,-6.243L1.689,1.43L0,1.43L0,-6.243Z" style="fill:rgb(230,231,232);fill-rule:nonzero;"/>
                        </g>
                        <g transform="matrix(1,0,0,1,416.966,571.847)">
                            <path d="M0,-9.103L-3.017,0L-4.813,0L-7.063,-6.737L-9.351,0L-11.157,0L-14.176,-9.103L-12.42,-9.103L-10.157,-2.185L-7.803,-9.103L-6.243,-9.103L-3.94,-2.146L-1.613,-9.103L0,-9.103Z" style="fill:rgb(230,231,232);fill-rule:nonzero;"/>
                        </g>
                        <g transform="matrix(1,0,0,1,431.456,567.294)">
                            <path d="M0,0.002C0,-1.859 -1.364,-3.198 -3.198,-3.198C-5.033,-3.198 -6.397,-1.859 -6.397,0.002C-6.397,1.86 -5.033,3.2 -3.198,3.2C-1.364,3.2 0,1.86 0,0.002M-8.102,0.002C-8.102,-2.691 -6.021,-4.681 -3.198,-4.681C-0.377,-4.681 1.704,-2.704 1.704,0.002C1.704,2.706 -0.377,4.683 -3.198,4.683C-6.021,4.683 -8.102,2.693 -8.102,0.002" style="fill:rgb(230,231,232);fill-rule:nonzero;"/>
                        </g>
                        <g transform="matrix(1,0,0,1,444.372,570.417)">
                            <path d="M0,-6.243L-1.976,-6.243L-1.976,-2.615L0,-2.615C1.483,-2.615 2.25,-3.29 2.25,-4.435C2.25,-5.58 1.483,-6.243 0,-6.243M2.289,1.43L0.431,-1.237C0.313,-1.223 0.195,-1.223 0.079,-1.223L-1.976,-1.223L-1.976,1.43L-3.667,1.43L-3.667,-7.673L0.079,-7.673C2.471,-7.673 3.953,-6.452 3.953,-4.435C3.953,-3.056 3.252,-2.042 2.018,-1.561L4.109,1.43L2.289,1.43Z" style="fill:rgb(230,231,232);fill-rule:nonzero;"/>
                        </g>
                        <g transform="matrix(1,0,0,1,455.962,571.847)">
                            <path d="M0,-9.103L1.691,-9.103L1.691,-1.431L6.45,-1.431L6.45,0L0,0L0,-9.103Z" style="fill:rgb(230,231,232);fill-rule:nonzero;"/>
                        </g>
                        <g transform="matrix(1,0,0,1,473.403,564.175)">
                            <path d="M0,6.241C2.028,6.241 3.342,5.005 3.342,3.121C3.342,1.233 2.028,-0.001 0,-0.001L-2.21,-0.001L-2.21,6.241L0,6.241ZM-3.901,-1.431L0.077,-1.431C3.03,-1.431 5.046,0.388 5.046,3.121C5.046,5.85 3.03,7.672 0.077,7.672L-3.901,7.672L-3.901,-1.431Z" style="fill:rgb(230,231,232);fill-rule:nonzero;"/>
                        </g>
                        <g transform="matrix(1,0,0,1,501.55,567.399)">
                            <path d="M0,-0.207L1.599,-0.207L1.599,3.421C0.65,4.189 -0.677,4.578 -1.965,4.578C-4.786,4.578 -6.866,2.614 -6.866,-0.103C-6.866,-2.821 -4.786,-4.785 -1.938,-4.785C-0.416,-4.785 0.858,-4.277 1.716,-3.303L0.65,-2.262C-0.065,-2.978 -0.885,-3.303 -1.86,-3.303C-3.798,-3.303 -5.164,-1.99 -5.164,-0.103C-5.164,1.743 -3.798,3.096 -1.873,3.096C-1.222,3.096 -0.585,2.966 0,2.627L0,-0.207Z" style="fill:rgb(230,231,232);fill-rule:nonzero;"/>
                        </g>
                        <g transform="matrix(1,0,0,1,515.051,565.956)">
                            <path d="M0,2.679L0,5.891L-1.69,5.891L-1.69,2.704L-5.268,-3.212L-3.459,-3.212L-0.794,1.222L1.899,-3.212L3.563,-3.212L0,2.679Z" style="fill:rgb(230,231,232);fill-rule:nonzero;"/>
                        </g>
                        <g transform="matrix(1,0,0,1,533.701,562.744)">
                            <path d="M0,9.103L-0.013,3.069L-3.003,8.062L-3.758,8.062L-6.748,3.147L-6.748,9.103L-8.361,9.103L-8.361,0L-6.97,0L-3.354,6.034L0.195,0L1.587,0L1.601,9.103L0,9.103Z" style="fill:rgb(230,231,232);fill-rule:nonzero;"/>
                        </g>
                        <g transform="matrix(1,0,0,1,389.436,561.033)">
                            <path d="M0,-19.068L0,-13.622L-16.345,-13.622L-16.345,-11.705L0,-11.705L0,-6.81L-16.345,-6.81L-16.345,0L-23.155,0L-23.155,-19.068L0,-19.068Z" style="fill:rgb(230,231,232);fill-rule:nonzero;"/>
                        </g>
                        <g transform="matrix(1,0,0,1,407.175,555.588)">
                            <path d="M0,-8.176L0,5.446L-6.81,5.446L-6.81,-8.176L-14.982,-8.176L-14.982,-13.622L8.173,-13.622L8.173,-8.176L0,-8.176Z" style="fill:rgb(230,231,232);fill-rule:nonzero;"/>
                        </g>
                        <g transform="matrix(1,0,0,1,418.103,541.966)">
                            <path d="M0,19.068L0,0L6.812,0L6.812,10.596L14.983,2.423L23.155,10.596L23.155,0L29.966,0L29.966,19.068L21.984,19.068L14.983,12.067L7.982,19.068L0,19.068Z" style="fill:rgb(230,231,232);fill-rule:nonzero;"/>
                        </g>
                        <g transform="matrix(1,0,0,1,475.345,561.033)">
                            <path d="M0,-19.068L0,-13.622L-14.875,-13.622L-17.708,-10.788L-17.708,-8.28L-14.875,-5.447L-6.811,-5.447L-6.811,-6.81L-13.621,-6.81L-13.621,-12.257L0,-12.257L0,0L-19.069,0L-24.518,-5.447L-24.518,-13.622L-19.069,-19.068L0,-19.068Z" style="fill:rgb(241,104,34);fill-rule:nonzero;"/>
                        </g>
                        <g transform="matrix(1,0,0,1,486.953,547.412)">
                            <path d="M0,8.174L-3.405,8.174L-8.853,2.725L-8.853,-5.447L-2.043,-5.447L-2.043,-0.108L0.79,2.725L6.02,2.725L8.854,-0.108L8.854,-5.447L15.664,-5.447L15.664,2.725L10.217,8.174L6.812,8.174L6.812,13.621L0,13.621L0,8.174Z" style="fill:rgb(241,104,34);fill-rule:nonzero;"/>
                        </g>
                        <g transform="matrix(1,0,0,1,512.185,552.562)">
                            <path d="M0,-2.125L0,8.472L-6.812,8.472L-6.812,-10.597L1.172,-10.597L8.172,-3.596L15.173,-10.597L23.154,-10.597L23.154,8.472L16.345,8.472L16.345,-2.125L8.172,6.047L0,-2.125Z" style="fill:rgb(241,104,34);fill-rule:nonzero;"/>
                        </g>
                        <g transform="matrix(1,0,0,1,309.17,568.843)">
                            <path d="M0,-64.813C3.206,-64.627 5.175,-63.493 7.629,-62.672C8.29,-62.523 8.95,-62.374 9.61,-62.225C9.887,-62.158 10.329,-62.233 10.52,-62.082C11.229,-61.52 11.572,-60.44 11.977,-59.607C13.067,-57.367 13.63,-54.747 14.568,-52.37C14.329,-51.696 12.676,-50.477 12.082,-50.069C11.708,-49.812 11.451,-49.419 10.954,-49.308C10.562,-49.219 9.383,-49.072 9.043,-49.376C9.06,-49.375 9.075,-49.375 9.092,-49.373C10.049,-50.081 11.007,-50.789 11.965,-51.498C12.296,-51.712 12.627,-51.927 12.96,-52.143C12.947,-54.522 11.575,-56.056 10.61,-57.644C10.229,-58.273 9.981,-59.019 9.565,-59.64C10.05,-58.144 10.535,-56.648 11.02,-55.152C11.184,-54.615 11.57,-53.619 11.405,-52.982C10.385,-52.32 9.364,-51.659 8.344,-50.997C8.055,-50.778 7.764,-50.559 7.473,-50.34C6.973,-50.311 6.473,-50.284 5.974,-50.255C5.982,-50.27 5.992,-50.286 6.002,-50.302C6.309,-50.52 6.615,-50.737 6.921,-50.955C7.682,-51.46 8.838,-52.411 9.668,-52.713C9.661,-55.099 8.321,-56.567 7.338,-58.14C6.877,-58.877 6.533,-59.756 6.046,-60.477C6.389,-58.783 7.198,-57.279 7.723,-55.648C7.844,-55.271 8.274,-53.968 8.09,-53.579C6.958,-52.876 5.826,-52.173 4.696,-51.47C4.389,-51.245 4.081,-51.019 3.774,-50.793C3.149,-50.766 2.526,-50.737 1.9,-50.709C1.902,-50.719 1.902,-50.726 1.902,-50.736C1.922,-50.757 1.94,-50.781 1.958,-50.805C2.273,-51.03 2.589,-51.255 2.904,-51.481C3.707,-52.018 4.93,-53.032 5.809,-53.353C5.8,-55.627 4.694,-57.125 3.819,-58.679C3.45,-59.404 3.082,-60.127 2.713,-60.852C2.886,-60.266 3.057,-59.681 3.229,-59.097C3.543,-58.083 3.776,-57.106 4.02,-56.026C4.11,-55.61 4.424,-54.621 4.229,-54.218C3.099,-53.514 1.969,-52.812 0.836,-52.109C0.53,-51.882 0.222,-51.658 -0.086,-51.431C-0.416,-51.314 -2.008,-51.301 -2.404,-51.381C-1.465,-52.69 -0.376,-54.237 0.961,-55.085C-0.221,-56.584 -1.402,-58.084 -2.584,-59.584C-1.902,-58.245 -1.229,-56.857 -0.655,-55.431C-0.751,-55.179 -1.009,-55.032 -1.172,-54.848C-1.688,-54.29 -2.202,-53.731 -2.716,-53.172C-3.733,-52.018 -4.329,-50.723 -5.925,-50.228C-6.627,-50.01 -7.318,-50.097 -8.203,-50.027C-8.695,-49.987 -9.843,-50.064 -10.279,-50.232C-11.431,-50.677 -12.081,-51.98 -12.904,-52.719C-12.625,-52.134 -12.345,-51.549 -12.065,-50.963C-12.356,-50.083 -12.646,-49.2 -12.936,-48.317C-13.341,-47.02 -13.745,-45.722 -14.15,-44.425C-14.514,-43.451 -14.878,-42.473 -15.241,-41.497C-15.233,-41.497 -15.225,-41.497 -15.217,-41.495C-15.215,-41.511 -15.214,-41.528 -15.212,-41.544C-14.64,-42.065 -14.271,-43.003 -13.857,-43.683C-12.864,-45.317 -11.796,-47.096 -11.048,-48.947C-10.515,-48.466 -10.106,-48.027 -9.43,-47.63C-10.072,-46.591 -10.714,-45.553 -11.355,-44.514C-12.268,-42.812 -13.013,-41.051 -13.64,-38.962C-14.17,-37.196 -14.313,-35.219 -14.782,-33.375C-14.934,-32.565 -15.086,-31.754 -15.238,-30.946C-15.911,-30.266 -16.585,-29.586 -17.258,-28.908C-18.753,-27.214 -20.293,-25.426 -21.502,-23.427C-21.477,-23.443 -21.451,-23.457 -21.424,-23.472C-21.08,-24.079 -20.305,-24.597 -19.788,-25.042C-18.247,-26.367 -16.583,-27.474 -14.73,-28.443C-11.779,-29.99 -8.821,-31.746 -5.149,-32.402C-1.389,-33.074 2.198,-30.928 4.673,-29.648C5.623,-29.161 6.574,-28.675 7.524,-28.188C6.7,-26.782 5.773,-25.349 4.734,-24.168C4.324,-23.703 3.783,-23.373 3.37,-22.926C5.309,-23.416 6.736,-24.153 7.919,-25.496C8.503,-26.208 9.089,-26.918 9.672,-27.628C11.406,-29.542 13.447,-31.254 15.624,-32.656C16.422,-33.168 17.248,-33.752 18.194,-34.081C21.455,-35.208 27.262,-34.057 30.537,-33.077C31.301,-32.863 32.065,-32.647 32.83,-32.433C33.52,-20.261 28.816,-11.73 23.266,-5.529C21.92,-4.026 20.388,-2.576 18.728,-1.441C18.051,-0.976 17.435,-0.398 16.702,0C15.334,-1.23 14.657,-3.841 13.784,-5.543C11.979,-9.068 9.675,-12.376 6.033,-14.315C5.238,-14.737 4.37,-15.276 3.385,-15.51C3.385,-15.501 3.385,-15.493 3.384,-15.485C4.434,-15.187 5.097,-14.171 5.962,-13.698C5.961,-13.689 5.96,-13.682 5.959,-13.673C5.312,-13.646 4.662,-13.621 4.013,-13.595C2.246,-13.286 0.672,-12.637 -0.975,-12.128C-3.078,-11.481 -5.139,-11.205 -7.657,-10.963C-9.451,-10.792 -11.895,-11.536 -13.179,-12.001C-15.344,-12.788 -17.328,-13.584 -19.393,-14.411C-20.623,-14.925 -21.854,-15.442 -23.084,-15.957C-23.085,-15.95 -23.086,-15.941 -23.087,-15.932C-21.915,-15.188 -20.742,-14.445 -19.571,-13.701C-18.826,-13.248 -18.079,-12.793 -17.333,-12.338C-15.513,-11.09 -13.458,-9.948 -11.126,-9.185C-10.505,-9.055 -9.884,-8.925 -9.263,-8.795C-7.907,-8.487 -6.142,-8.835 -5.114,-9.055C-2.388,-9.642 0.055,-10.382 2.588,-11.189C3.744,-11.557 4.873,-11.764 6.504,-11.641C6.951,-11.608 7.694,-11.658 8.034,-11.477C8.49,-10.803 8.945,-10.131 9.4,-9.458C10.232,-8.068 10.882,-6.568 11.53,-5.017C11.774,-4.411 12.02,-3.801 12.264,-3.195C9.792,-3.707 8.278,-4.872 6.368,-5.878C5.365,-6.408 4.134,-7.219 2.453,-7.093C1.428,-7.016 0.439,-6.971 -0.501,-6.842C-1.313,-6.746 -2.125,-6.649 -2.938,-6.552C-2.938,-6.545 -2.939,-6.536 -2.939,-6.529C-2.252,-6.394 -1.566,-6.258 -0.879,-6.125C0.379,-5.815 1.594,-5.791 2.65,-5.386C3.462,-5.042 4.273,-4.7 5.086,-4.357C5.085,-4.35 5.084,-4.34 5.084,-4.332C2.443,-4.539 -0.144,-4.491 -2.512,-4.256C-4.174,-4.224 -5.836,-4.192 -7.497,-4.159C-8.442,-4.165 -9.388,-4.167 -10.334,-4.172C-10.688,-4.199 -11.042,-4.226 -11.398,-4.252C-12.089,-4.313 -12.781,-4.375 -13.474,-4.433C-14.668,-4.719 -15.835,-4.81 -16.93,-5.142C-19.583,-5.941 -22.021,-6.906 -24.329,-8.013C-25.532,-8.567 -26.734,-9.123 -27.937,-9.677C-28.408,-9.904 -28.882,-10.129 -29.354,-10.357C-27.398,-10.656 -25.443,-10.958 -23.488,-11.259C-22.854,-11.293 -22.222,-11.329 -21.588,-11.364C-21.2,-11.345 -20.811,-11.323 -20.423,-11.301C-21.739,-11.567 -23.268,-12.266 -25.041,-12.122C-26.886,-11.971 -28.611,-12.054 -30.409,-11.878C-31.118,-11.808 -32.704,-11.683 -33.493,-11.887C-34.34,-12.116 -35.186,-12.346 -36.031,-12.575C-37.07,-12.903 -38.084,-13.172 -39.018,-13.547C-39.234,-13.638 -39.454,-13.728 -39.67,-13.82C-40.294,-14.417 -40.018,-17.789 -39.727,-19.025C-39.68,-19.544 -39.631,-20.063 -39.585,-20.583C-39.294,-21.81 -39.351,-23.126 -39.033,-24.274C-38.238,-27.132 -36.966,-29.125 -35.435,-31.096C-31.009,-36.784 -26.249,-42.154 -21.694,-47.681C-19.595,-50.229 -17.604,-52.89 -15.513,-55.428C-14.592,-56.546 -13.709,-57.703 -12.702,-58.727C-12.342,-58.874 -11.983,-59.02 -11.623,-59.167C-10.708,-59.531 -9.793,-59.893 -8.878,-60.256C-6.629,-61.053 -4.493,-62.187 -2.502,-63.311C-1.817,-63.695 -0.512,-64.292 0,-64.813" style="fill:rgb(230,231,232);"/>
                        </g>
                        <g transform="matrix(1,0,0,1,305.701,522.179)">
                            <path d="M0,-3.455C0.6,-3.351 1.18,-3.158 1.833,-3.017C2.381,-2.9 3.045,-3.032 3.529,-3.064C4.147,-2.893 4.765,-2.724 5.382,-2.552C5.329,-2.506 5.275,-2.461 5.223,-2.414C4.758,-1.6 4.146,-1.465 4.25,-0.074C1.528,0 0.188,-0.65 -1.59,-1.509C-2.073,-1.686 -2.559,-1.864 -3.042,-2.041C-1.824,-2.045 -0.544,-2.647 0,-3.455" style="fill:rgb(230,231,232);"/>
                        </g>
                        <g transform="matrix(1,0,0,1,313.417,523.978)">
                            <path d="M0,-4.276C0.577,-4.117 1.153,-3.957 1.73,-3.797C2.41,-3.63 3.092,-3.9 3.667,-3.752C4.566,-3.519 5.368,-2.889 6.415,-3.221C6.11,-1.05 3.769,-1.089 2.034,-0.564C2.019,-0.573 2.004,-0.584 1.988,-0.593C2.103,-1.84 1.677,-2.301 1.224,-3.014C1.224,-3.023 1.226,-3.03 1.226,-3.04C1.991,-3.046 2.643,-2.987 3.086,-2.625C2.621,-3.485 1.351,-3.32 0.228,-3.338C0.858,-2.374 1.101,-2.52 1.222,-0.999C1.236,-0.809 1.229,-0.446 1.172,-0.33C0.805,-0.289 0.399,0 -0.061,-0.15C-0.703,-0.356 -1.576,-2.034 -1.655,-2.782C-1.721,-3.382 -1.354,-3.854 -1.129,-4.162C-0.744,-4.146 -0.268,-4.134 0,-4.276" style="fill:rgb(230,231,232);"/>
                        </g>
                        <g transform="matrix(1,0,0,1,291.499,536.378)">
                            <path d="M0,-10.808C-0.775,-9.771 -1.55,-8.734 -2.325,-7.697C-3.522,-6.031 -4.355,-4.169 -5.304,-2.173C-5.606,-1.449 -5.91,-0.725 -6.213,-0.001C-6.205,0 -6.197,0 -6.188,0C-6.187,-0.016 -6.186,-0.033 -6.185,-0.049C-5.626,-0.854 -5.068,-1.658 -4.51,-2.46C-3.268,-4.14 -1.755,-5.617 -0.812,-7.632C-0.664,-7.949 0.051,-10.561 0,-10.808" style="fill:rgb(230,231,232);"/>
                        </g>
                        <g transform="matrix(1,0,0,1,273.071,556.577)">
                            <path d="M0,-2.365C1.15,0 3.74,-0.15 6.774,-0.653C7.502,-0.686 8.23,-0.719 8.958,-0.752C8.57,-0.927 8.18,-1.1 7.792,-1.273C7.018,-1.582 6.187,-1.755 5.261,-1.918C3.948,-2.152 2.672,-1.594 1.39,-1.819C0.795,-1.925 0.444,-2.169 0,-2.365" style="fill:rgb(230,231,232);"/>
                        </g>
                        <g transform="matrix(1,0,0,1,315.034,572.698)">
                            <path d="M0,-6.576C0.936,-6.492 1.87,-6.409 2.804,-6.327C4.789,-5.88 6.775,-5.433 8.761,-4.986C9.372,-4.508 9.984,-4.026 10.597,-3.548C10.588,-3.532 10.58,-3.514 10.57,-3.499C9.753,-3.026 8.934,-2.555 8.114,-2.084C6.622,-1.215 4.931,-0.677 3.251,0C2.036,-0.974 1.351,-3.125 0.72,-4.714C0.479,-5.334 0.24,-5.955 0,-6.576" style="fill:rgb(230,231,232);"/>
                        </g>
                        <g transform="matrix(-0.769511,-0.638633,-0.638633,0.769511,295.987,571.147)">
                            <path d="M-16.41,-70.145C-23.629,-64.564 -29.33,-56.853 -32.431,-47.545C-39.003,-27.832 -31.959,-6.866 -16.41,5.177C-36.001,-2.945 -46.268,-24.95 -39.457,-45.386C-35.571,-57.042 -26.927,-65.767 -16.41,-70.145" style="fill:rgb(241,104,34);fill-rule:nonzero;"/>
                        </g>
                    </g>
                </g>
            </g>
        </g>
    </g>
</svg>
